G04 Layer_Color=32896*
%FSLAX44Y44*%
%MOMM*%
G71*
G01*
G75*
%ADD51C,0.1500*%
%ADD52C,0.6000*%
D51*
X667500Y147500D02*
X677000D01*
Y131500D02*
Y147500D01*
X667500Y131500D02*
X677000D01*
X667500D02*
Y147500D01*
X683500Y149750D02*
Y159250D01*
X667500Y149750D02*
X683500D01*
X667500D02*
Y159250D01*
X683500D01*
X697500Y147500D02*
X707000D01*
Y131500D02*
Y147500D01*
X697500Y131500D02*
X707000D01*
X697500D02*
Y147500D01*
X713500Y149250D02*
Y158750D01*
X697500Y149250D02*
X713500D01*
X697500D02*
Y158750D01*
X713500D01*
X699000Y371500D02*
Y381000D01*
X683000Y371500D02*
X699000D01*
X683000D02*
Y381000D01*
X699000D01*
Y416750D02*
Y426250D01*
X683000Y416750D02*
X699000D01*
X683000D02*
Y426250D01*
X699000D01*
Y405250D02*
Y414750D01*
X683000Y405250D02*
X699000D01*
X683000D02*
Y414750D01*
X699000D01*
Y450250D02*
Y459750D01*
X683000Y450250D02*
X699000D01*
X683000D02*
Y459750D01*
X699000D01*
Y394250D02*
Y403750D01*
X683000Y394250D02*
X699000D01*
X683000D02*
Y403750D01*
X699000D01*
Y439250D02*
Y448750D01*
X683000Y439250D02*
X699000D01*
X683000D02*
Y448750D01*
X699000D01*
X678750Y120000D02*
X688250D01*
X678750D02*
Y136000D01*
X688250D01*
Y120000D02*
Y136000D01*
X678750Y57500D02*
Y67000D01*
X694750D01*
Y57500D02*
Y67000D01*
X678750Y57500D02*
X694750D01*
X678750Y90750D02*
X724750D01*
X678750Y70250D02*
Y90750D01*
Y70250D02*
X724750D01*
Y90750D01*
X678750Y116000D02*
X724750D01*
X678750Y95500D02*
Y116000D01*
Y95500D02*
X724750D01*
Y116000D01*
X701750Y459750D02*
X747750D01*
X701750Y439250D02*
Y459750D01*
Y439250D02*
X747750D01*
Y459750D01*
X701750Y437250D02*
X747750D01*
X701750Y416750D02*
Y437250D01*
Y416750D02*
X747750D01*
Y437250D01*
X701750Y414750D02*
X747750D01*
X701750Y394250D02*
Y414750D01*
Y394250D02*
X747750D01*
Y414750D01*
X701750Y392000D02*
X747750D01*
X701750Y371500D02*
Y392000D01*
Y371500D02*
X747750D01*
Y392000D01*
X741750Y462000D02*
Y482500D01*
X787750D01*
Y462000D02*
Y482500D01*
X741750Y462000D02*
X787750D01*
X790250Y28000D02*
X810750D01*
X790250D02*
Y74000D01*
X810750D01*
Y28000D02*
Y74000D01*
X406750Y304750D02*
Y325250D01*
X452750D01*
Y304750D02*
Y325250D01*
X406750Y304750D02*
X452750D01*
X278250Y246250D02*
Y292250D01*
X257750D02*
X278250D01*
X257750Y246250D02*
Y292250D01*
Y246250D02*
X278250D01*
X406750Y302250D02*
X480500D01*
Y288000D02*
Y302250D01*
Y198750D02*
Y288000D01*
X406750Y198750D02*
Y302250D01*
Y198750D02*
X480500D01*
X187750Y260000D02*
X197250D01*
X187750D02*
Y276000D01*
X197250D01*
Y260000D02*
Y276000D01*
X234000Y229500D02*
X254500D01*
X234000D02*
Y275500D01*
X254500D01*
Y229500D02*
Y275500D01*
X176000Y137250D02*
X222000D01*
Y157750D01*
X176000D02*
X222000D01*
X176000Y137250D02*
Y157750D01*
X188250Y54250D02*
Y100250D01*
X167750D02*
X188250D01*
X167750Y54250D02*
Y100250D01*
Y54250D02*
X188250D01*
X129250Y26750D02*
Y100250D01*
Y26750D02*
X164750D01*
Y100250D01*
X129250D02*
X164750D01*
X81000Y349500D02*
Y359000D01*
X65000Y349500D02*
X81000D01*
X65000D02*
Y359000D01*
X81000D01*
X92750Y362750D02*
Y372250D01*
X76750Y362750D02*
X92750D01*
X76750D02*
Y372250D01*
X92750D01*
X79000Y99250D02*
X125000D01*
Y119750D01*
X79000D02*
X125000D01*
X79000Y99250D02*
Y119750D01*
X2750D02*
X76250D01*
X2750Y84250D02*
Y119750D01*
Y84250D02*
X76250D01*
Y119750D01*
X105500Y57250D02*
X115000D01*
X105500D02*
Y73250D01*
X115000D01*
Y57250D02*
Y73250D01*
X12250Y312750D02*
X21750D01*
Y296750D02*
Y312750D01*
X12250Y296750D02*
X21750D01*
X12250D02*
Y312750D01*
X12250Y296750D02*
X21750D01*
Y280750D02*
Y296750D01*
X12250Y280750D02*
X21750D01*
X12250D02*
Y296750D01*
X100500Y6000D02*
Y15500D01*
X116500D01*
Y6000D02*
Y15500D01*
X100500Y6000D02*
X116500D01*
X55500Y191250D02*
X58250D01*
X85250D01*
Y157750D02*
Y191250D01*
X47750Y157750D02*
X85250D01*
X47750D02*
Y191250D01*
X55500D01*
X76250Y141250D02*
X85750D01*
Y125250D02*
Y141250D01*
X76250Y125250D02*
X85750D01*
X76250D02*
Y141250D01*
X92250Y146250D02*
Y155750D01*
X76250Y146250D02*
X92250D01*
X76250D02*
Y155750D01*
X92250D01*
X35750Y175250D02*
X45250D01*
X35750D02*
Y191250D01*
X45250D01*
Y175250D02*
Y191250D01*
X35750Y157750D02*
X45250D01*
X35750D02*
Y173750D01*
X45250D01*
Y157750D02*
Y173750D01*
X62750Y122250D02*
X65500D01*
X35750D02*
X62750D01*
X35750D02*
Y155750D01*
X73250D01*
Y122250D02*
Y155750D01*
X65500Y122250D02*
X73250D01*
X153000Y206750D02*
Y222750D01*
Y206750D02*
X162500D01*
Y222750D01*
X153000D02*
X162500D01*
X153000Y194000D02*
X169000D01*
Y203500D01*
X153000D02*
X169000D01*
X153000Y194000D02*
Y203500D01*
X118000Y194000D02*
Y201250D01*
Y194000D02*
X149500D01*
Y228000D01*
Y233500D01*
X118000D02*
X149500D01*
X118000Y233250D02*
Y233500D01*
Y230250D02*
Y233250D01*
Y204000D02*
Y230250D01*
Y201250D02*
Y204000D01*
X103500Y237000D02*
Y257500D01*
X149500D01*
Y237000D02*
Y257500D01*
X103500Y237000D02*
X149500D01*
X94000Y233500D02*
X114500D01*
Y187500D02*
Y233500D01*
X94000Y187500D02*
X114500D01*
X94000D02*
Y233500D01*
X115000Y135750D02*
Y181750D01*
Y135750D02*
X135500D01*
Y181750D01*
X115000D02*
X135500D01*
X103500Y278500D02*
X149500D01*
X103500Y258000D02*
Y278500D01*
Y258000D02*
X149500D01*
Y278500D01*
X103500Y299000D02*
X149500D01*
X103500Y278500D02*
Y299000D01*
Y278500D02*
X149500D01*
Y299000D01*
X345500Y330000D02*
X355000D01*
Y314000D02*
Y330000D01*
X345500Y314000D02*
X355000D01*
X345500D02*
Y330000D01*
X366750Y344000D02*
Y353500D01*
X382750D01*
Y344000D02*
Y353500D01*
X366750Y344000D02*
X382750D01*
X323500Y300250D02*
Y309750D01*
X339500D01*
Y300250D02*
Y309750D01*
X323500Y300250D02*
X339500D01*
X323500Y312250D02*
Y321750D01*
X339500D01*
Y312250D02*
Y321750D01*
X323500Y312250D02*
X339500D01*
X142250Y186750D02*
X188250D01*
X142250Y166250D02*
Y186750D01*
Y166250D02*
X188250D01*
Y186750D01*
X222000Y137250D02*
X242500D01*
X222000D02*
Y183250D01*
X242500D01*
Y137250D02*
Y183250D01*
X263250Y137250D02*
Y183250D01*
X242750D02*
X263250D01*
X242750Y137250D02*
Y183250D01*
Y137250D02*
X263250D01*
X360000Y194750D02*
Y240750D01*
Y194750D02*
X380500D01*
Y240750D01*
X360000D02*
X380500D01*
X385000Y337500D02*
X394500D01*
X385000D02*
Y353500D01*
X394500D01*
Y337500D02*
Y353500D01*
X647750Y380250D02*
Y426250D01*
Y380250D02*
X668250D01*
Y426250D01*
X647750D02*
X668250D01*
D52*
X458500Y294000D02*
G03*
X458500Y294000I-3000J0D01*
G01*
M02*
