M48
;Layer_Color=9474304
;FILE_FORMAT=4:4
METRIC,LZ
;TYPE=PLATED
T1F00S00C0.3000
T2F00S00C0.5000
T3F00S00C0.6000
T4F00S00C0.8000
T5F00S00C1.0000
T6F00S00C1.5000
T7F00S00C1.8000
T8F00S00C3.1000
;TYPE=NON_PLATED
T9F00S00C0.9000
%
T01
X005845Y00013
X0061325Y000245
X0063625
X0076275
X0078575
X008145Y00036
Y00013
X00826
X0053275Y000245
X0050975
X004695Y00036
X00458
X004465
X00435
X004235
X0042925Y000245
X004005Y00036
X003775
X00366
X003545
X00343
X003315
Y00013
X00297
X0027975Y000245
X0026825
X0025675
X0024525
X00251Y00036
X002625
X00274
X002855
X002625Y00013
X00251
X0021075Y000245
X0018375Y0001175
X0015475Y0001075
X001245Y00036
X00113
X0009
X000785Y00013
X0008675Y000505
X000785Y00059
X0007275Y000705
X000785Y00082
X00067
X000555
X00044
X000325
X00021
X000095
X0003825Y000935
X00044Y00105
X000325
X0003825Y001165
X00055Y00112
X00076Y0012075
X0010275Y0011225
X0013475Y001125
X00128Y000905
X00122Y000785
X00125Y000595
X00111Y001515
X001225Y001855
X00139257Y00175509
X00132507Y00236262
X0010675Y002205
X00091Y0022175
X00067Y0022
X00064503Y0019701
X000725Y001845
X0008475Y00194
X000095Y00197
X0001525Y002315
X0002675
X0003825Y002775
X000555Y00266
X0007315Y003029
X0008585
X001015Y00312
X0010725Y003235
X0009575
X001015Y00335
X00113
X0009
X0008425Y003465
X0007275
X0006125
X0005225Y0037025
X00072Y0036925
X001015Y00381
X00113
X001245
X00136
X0014175Y003925
X0013025
X0011875
X0010725
X0009575
X001015Y00404
X00113
X001245
X00136
X0014175Y004155
X0013025
X0011875
X0010725
X0009575
X0009Y00404
X00044
X0004975Y004155
X0003825
X00044Y00427
X0002675Y003925
X0001525
X00021Y00381
X000325
X0002675Y003695
X0001525
X000095Y00381
Y00358
X00021
X0002675Y003465
X0001525
X0004975Y003235
X0002675Y003005
X001245Y00289
X0013025Y002775
X001355Y0032675
X00136Y00358
X001245
Y00427
X00136
X0002675Y001625
X00021Y00151
X0002675Y001395
X00021Y00128
X000095
X00151507Y00150257
X00159008Y00147757
X0017725Y0013475
X0019275Y00129
X00219Y0012975
X00232Y00121
X0024775Y0013425
X002535Y00148
X0026875Y001345
X00279Y0014375
X0030925Y0014625
X0031675Y00143
Y001355
Y00128
X0030275Y001165
X003085Y00105
X0032
X0031425Y000935
X0030275
X003085Y00082
X0032
X0031425Y000705
X0030275
X0027975
X0026825
X0025675
X002625Y00082
X002395
X00228
X0020125Y0007975
X00213Y000485
X0023375Y0004825
X0024525Y000475
X0024175Y0005425
X0025675Y000475
X0026825
X0027975
X0029125
X0033725
X0034875
X0036025
X0037175
X0038325
X003775Y00059
X003895Y000625
X0037175Y000705
X0039825Y0008825
X00389Y00105
X00412
X00435
X004235Y00082
Y00059
X0042925Y000475
X0044075
X0045225
X0041775
X0049825
X004925Y00082
X0050575Y0008475
X0049825Y000935
X004925Y00105
X004695
X0046375Y000935
X004695Y00082
X0047525Y000705
X004755Y001205
X0047225Y0015275
X004825Y0015325
X00484547Y00163782
X0048075Y00178
X0049725Y0018175
X00504Y0017825
X0049175Y001965
X0048725Y00213
X00496Y0022125
X0048725Y00238
X0051075
X00509Y0025125
X005195Y0025075
X0052575Y0023125
X005275Y0021175
X00532Y001905
X0053025Y0014775
X005155Y0015575
X005135Y0011275
X0052975Y0010475
X0053275Y000935
X005385Y00082
X00458772Y00157758
X00452522Y00153258
X0043975Y001525
X00428021Y00147007
X0042166Y001515
X0040125Y0014775
X003815Y0015725
X0036575Y001525
X00359Y00137
X00346Y00142
X00328016Y00178509
X00311Y0018325
X00297514Y00176259
X0030725Y0022325
X003125Y00234
X003085Y00243
X0029625Y00238
X0028025Y0022525
X0024725Y0022675
X00241762Y00220011
X0024775Y0021475
X00225261Y0021601
X00217511Y00215011
X002115Y0020625
X0020726Y0019851
X0019625Y002045
Y0021725
X0019775Y00226357
X0019125Y0023275
X00174009Y00229261
X001685Y002345
X00163322Y00239928
X00158Y0024525
X0016Y0026475
X0015325Y0027075
X001785Y0030225
X001795Y00327
X0015825Y0032725
X00164235Y0035425
X001475Y00358
Y00381
X0015325Y003925
X001475Y00404
X0015325Y004155
X001475Y00427
X00182
X001935
X00205
X002165
X00228
X002395
X0024525Y004155
X0025675
Y003925
X0026825
X0027975
X0029125
X00297Y00404
X003085
X0032
X003315
X00343
X003545
X00366
X003775
X00389
X004005
X0040625Y004155
X0041775
X00417Y00408
X0042925Y004155
X0044075
X0046375
X004695Y00404
X00481
X0048825Y0039775
X0048675Y004155
X004825Y004315
X0050625Y0041725
X0052575Y0041425
X005235Y0043225
X005135Y003895
X004995Y003885
X0048225Y0037725
X0047675Y0036075
X0046675Y003525
X0045225Y003695
X00458Y00381
X004465
X004235
X004005
X00389
X003775
X00366
X003545
X00343
X003315
X0032
X003085
X0031425Y003695
X0032575
X0033725
X0034875
X0036025
X0037175
X0038325
X0039475
X0040625
X004005Y00358
X00389
X003785Y003565
X0037225Y0033475
X003625Y0033725
X0033875Y00341
X00343Y00358
X003315
X0032
X003085
X0029775Y00355
X002855Y00381
X00274
X002625
X00251
X00228
X002165
X00205
X001935
X00182
X0017625Y003925
X0018775
X0019925
X0021075
X0022225
X0023375
X002395Y00404
X00228
X002165
X00205
X001935
X00182
X0017625Y004155
X0018775
X0019925
X0021075
X0022225
X0023375
Y003695
X0022225
X0021075
X002165Y00358
X00228
X00182
X0021075Y003235
X002165Y00312
X00205
X00216Y0029625
X0021075Y002775
X00230511Y00239762
X002505Y00242
X0025175Y0025075
X002645Y0025125
X0026675Y0028475
X0026625Y00301
X002605Y0031725
X0025425Y003245
X0027525Y003215
X00236Y00315
X0030875Y0030525
X0031675Y00317
X0035025Y00309
X00338Y00271
X00336Y002505
X00340017Y00232011
X0033525Y0022575
X0033025Y00219
X003575Y00218
X0037225Y00214
X003795Y0023475
X004005Y0024225
X0042375Y0024475
X0043725Y002445
X00438Y0026225
X0044025Y002765
X0045575Y0028275
X0045325Y00253349
X004245Y0023125
X0042425Y0021875
X00425Y001955
X00446Y0019075
X00463773Y0019676
X004005Y002085
X0039525Y0022025
X00385269Y00190509
X0040277Y00178009
X0038775Y0026
X0039675Y0026975
X0039575Y0027925
X0037575Y00277
X003935Y00302
X0039475Y003235
X003835Y00327
X00417Y0032825
X0042925Y003235
X0047775Y003314
X004765Y0031175
X004935Y003055
X005075Y00304
X005095Y003265
X0052325Y0035475
X0052125Y003695
X0048325Y002885
X00498024Y00263013
X0030275Y002775
Y004155
X0031425
X0032575
X0033725
X0034875
X0036025
X0037175
X0038325
X0039475
X00389Y00427
X003775
X00366
X003545
X00343
X003315
X0032
X003085
X00297
X0029125Y004155
X0027975
X0027925Y0042675
X00274Y00404
X002855
X004005Y00427
X00412
X004235
X003305Y00094
X0022975Y0017525
X002165Y00176809
X0020675Y0018025
X001915
X0018025Y0018125
Y0017
X001975Y0017375
X001955Y0018875
X001895Y0019475
X0017175Y00206
X00165258Y0021276
X00164008Y00220761
X0016475Y001855
X0020025Y00159
X001635Y00109
X0015025Y0006825
X0055Y00082
X0055575Y000935
X0054425
X0055Y00105
X00565Y0011175
X00573Y00105
X005845
X0057875Y000935
X0059025
X0060175Y000705
X0061325
X0062275Y0007725
X0063625Y000705
X0063775Y00094
X00647831Y0011158
X006245Y0013625
X0060853Y00121506
X0057725Y0012375
X0057275Y001535
X0056Y0015975
X00559Y001785
X00564Y0019
X005475Y001945
X00542776Y00229761
X005725Y00246
X0057025Y0026275
X00573Y00277342
X0056525Y002775
X00557277Y00277514
X0054925Y00277342
X005535Y0029725
X0055925Y0030325
X00566Y0030925
X0057275Y003145
X0057875Y003195
X00566Y0032275
X005455
X0055875Y0033725
X0055625Y0036225
X0057Y003575
X0057175Y0037675
X0056Y003805
X0055225Y0038075
X00544Y003915
X0055325Y004005
X0055Y00427
X00573
X0059025Y004155
X0060175
X0061325
X0062475
X0063625
X0062925Y0042825
X00619Y00427
X0061325Y003925
X0059575Y0040425
X00596Y00358
X00619
X006305
X0063625Y003695
X006395Y00389
X0066575Y00406
X0066175Y0042175
X007225Y00404
Y00381
X0078
X007915
X00803
X008145
X00826
X008375
X00849
X008605
X00872
X008835
X0088925Y003925
X0087775
X0086625
X0085475
X0084325
X0083175
X0082025
X0080875
X0079725
X0078575
X0077425
X0078Y00404
X007915
X00803
X008145
X00826
X008375
X00849
X008605
X00872
X008835
X0088925Y004155
X0087775
X0086625
X0085475
X0084325
X0083175
X0082025
X0080875
X0079725
X008145Y00427
X00826
X008375
X00849
X008605
X00872
X008835
X0088925Y003695
X0087775
X0086625
X0085475
X0084325
X0083175
X0082025
X0080875
X008145Y00358
X00826
X008375
X00849
X008605
X00872
X008835
X0088925Y003465
X0087775
X0086625
X0085475
X0084325
X0083175
X0082025
X00826Y00335
X008375
X00849
X008605
X00872
X008835
X0088925Y003235
X0087775
X0086625
X008605Y00312
X008835
X0088925Y002545
Y002085
X008835Y00197
X00872
X008605
X0086625Y001855
X0087775
X0088925
X008835Y00174
X00872
X0087775Y001625
X0088925
X008835Y00151
X00872
X0087775Y001395
X0088925
X008835Y00128
X00872
X008605
X0086625Y001395
Y001625
Y001165
X0087775
X0088925
X008835Y00105
X00872
X0087775Y000935
X0088925
X008835Y00082
X00872
X008605
X00849
X00844Y0010275
X0086625Y000935
X0088925Y000705
X008145Y00082
X00803
X007915
X0078
X007685
X00757
X0076275Y000935
X0077425
X0078575
X0079725
X0080875
X0082025
Y001165
X0080875
X0079725
X0078575
X0077425
X0076275
X007685Y00128
X0078
X007915
X00803
X008145
X00826
X008375
X0083175Y001395
X0082025
X0080875
X0079725
X0078575
X0077425
X0076275
X007685Y00151
X0078
X007915
X00803
X008145
X00826
X008145Y00174
X0080875Y001855
X0079725
X0078575
X0077425
X0078Y00197
X007915
X00803
X0078575Y002085
X0078Y0022
Y00243
X0077225Y00256
X0076275Y002545
X0075125
X0073975
X0074425Y0023975
X00757Y00243
X0076275Y002315
X007585Y0019975
X0072825Y002085
X007225Y0022
Y00243
X0072825Y002775
X0071675
X007225Y00289
X00711
X006925Y00291
X006995Y00267
X006515Y00286
X0063875Y0029475
X006185Y00299
X0061753Y00283514
X0061Y00283559
X00586Y0028575
X0056625Y0029
X00541Y0029675
X0059525Y0025475
X006005Y00236
X0064Y001865
X0065925Y001625
X0066575Y00148
X0069325Y00154
X0069375Y001395
X006995Y00128
Y00105
Y00082
X0070225Y0006825
X0075125Y000705
X0076275
X0077425
X0078575
Y000475
X0079725
X0080875
X008145Y00059
X0077425Y000475
X0076275
X0075125
X0072825Y001395
X007225Y00151
X0076275Y001625
X0078575
X008375Y00197
X0085475Y002085
X0083175Y002545
X0082025
X00826Y00266
X0083175Y002775
X00826Y00289
X0083175Y003005
X008145Y00335
X0078Y00289
Y00266
X00674Y0020875
X005995Y0014775
X0063625Y003465
X00642Y0045
X006535
X0065925Y004845
X0063625
X0061325
X005845Y00496
X0055575Y004845
Y004385
X0056725
X007625Y004395
X0077425Y004385
X0078575
X007915Y0045
X0078
X007685
X00757
X0076275Y004615
X007685Y00473
X0076275Y004845
X0073975
X00711Y00496
X008145
X0080875Y004845
X008145Y00473
X0080875Y004615
X008145Y0045
X0082025Y004385
X0080875
X007915Y00473
X0088925Y004385
X0050975
X00504Y0045
X004925
X00481
X0048675Y004385
X0047525
X0045225
X00458Y0045
X0046375Y004615
X0045225
X00458Y00473
X004695
X004465
X00435
X004235
X00412
X004005
X00389
X003775
X00366
X003545
X00343
X003315
X0032
X003085
X00297
X0030275Y004845
X0031425
X0032575
X0033725
X0034875
X0036025
X0037175
X0038325
X0039475
X0040625
X0041775
X00412Y00496
X004005
X00389
X003775
X00366
X003545
X00343
X003315
X0032
X003085
X00297
X0030275Y004615
X0031425
X0032575
X0033725
X0034875
X0036025
X0037175
X0038325
X0039475
X0040625
X0041775
X00412Y0045
X004235
X0041775Y004385
X0040625
X0039475
X0038325
X0037175
X0036025
X0034875
X0033725
X0032575
X0031425
X0030275
X003085Y0045
X0032
X003315
X00343
X003545
X00366
X003775
X00389
X004005
X0045225Y004845
X00458Y00496
X004465
X0050975Y004845
X0053275
X0029125Y004615
X0027975
X00297Y0045
X002625Y00473
X00251
X002395
X00228
X002165
X00205
X001935
X00182
X001705
X00159
X001475
X0015325Y004845
X0016475
X0017625
X0018775
X0019925
X0021075
X0022225
X0023375
X00228Y00496
X002165
X00205
X001935
X00182
X001705
X00159
X001475
X0015325Y004615
X0016475
X0017625
X0018775
X0019925
X0021075
X0022225
X0023375
X0024525
X002395Y0045
X00228
X002165
X00205
X001935
X00182
X001705
X00159
X001475
X0017625Y004385
X0018775
X0019925
X0021075
X0022225
X0023375
X0024525
X0026825Y004845
X0014175
X0013025
X0011875
X001245Y00473
X00136
X0013025Y004615
X0011875
X0010725
X0009575
X0008425
X000785Y0045
X0007275Y004385
X0008425
Y004845
X000785Y00496
X001245
X00136
X0014175Y004615
X00136Y0045
X001245
X0001525Y004385
T02
X0009675Y002492
X0005925Y0029975
T03
X0020525Y0001575
X0021795
X0023065
X0028625Y000155
X0053275Y00035
X0009275Y0002555
Y0001285
X0013725Y0007075
X0009775Y00134
X00031Y001845
X000145Y0018265
Y0016995
X000225Y00215
X001525Y001245
X0021105Y001056
X0022375
X0023645
X0024915
Y000929
X0023645
X0022375
X0021105
X0027625Y0009705
Y0010975
Y0008435
X0029175Y00261
X0030445
X0031715
X0019375Y002842
Y002969
X004948Y0028985
X005075
X005202
X005329
Y0027715
X005202
X005075
X004948
X0068585Y001935
X0068375Y0014075
X0071775Y001065
Y0008025
X0071775Y0006125
X0074Y0038425
Y0040325
Y0042975
X00694534Y00431771
X006955Y00388
X0067975Y0046725
X0074Y0044925
T04
X005468Y000169
X005722
X005976
X00623
X006484
X006738
X006992
X007246
X0075
X007754
X008008
X005214
X00496
X004706
X004452
X004198
X003944
X00369
X003436
X003182
Y001693
X003436
X00369
X003944
X004198
X004452
X004706
X00496
X005214
X005205Y003404
X004951
X004697
X005459
X005713
X005967
X006221
X006475
X006729
X006983
X007237
X007491
X007745
X007999
X008008Y001693
X007754
X0075
X007246
X006992
X006738
X006484
X00623
X005976
X005722
X005468
X005459Y004928
X005713
X005967
X006221
X006475
X006729
X006983
X007237
X007491
X007745
X007999
X005205
X004951
X004697
T05
X00017Y002448
Y002702
T06
X008035Y0022525
X0083825
X008735
Y0028775
X008035
T07
X00806Y0025725
X00866Y002575
T08
X0004Y0004
X0085525
Y0047
X0004
T09
X00047Y00348
Y00392
M30
