G04 Layer_Color=8388736*
%FSLAX44Y44*%
%MOMM*%
G71*
G01*
G75*
%ADD63C,0.9000*%
%ADD79O,1.5500X0.6500*%
%ADD80R,0.7500X0.6500*%
%ADD81O,0.8500X1.3500*%
%ADD82R,4.6500X2.1500*%
%ADD83O,0.7500X1.6000*%
G04:AMPARAMS|DCode=84|XSize=1.35mm|YSize=1.85mm|CornerRadius=0.195mm|HoleSize=0mm|Usage=FLASHONLY|Rotation=90.000|XOffset=0mm|YOffset=0mm|HoleType=Round|Shape=RoundedRectangle|*
%AMROUNDEDRECTD84*
21,1,1.3500,1.4600,0,0,90.0*
21,1,0.9600,1.8500,0,0,90.0*
1,1,0.3900,0.7300,0.4800*
1,1,0.3900,0.7300,-0.4800*
1,1,0.3900,-0.7300,-0.4800*
1,1,0.3900,-0.7300,0.4800*
%
%ADD84ROUNDEDRECTD84*%
%ADD85R,0.8500X1.1500*%
%ADD86R,0.6500X0.7500*%
G04:AMPARAMS|DCode=87|XSize=2.35mm|YSize=2.75mm|CornerRadius=0.405mm|HoleSize=0mm|Usage=FLASHONLY|Rotation=90.000|XOffset=0mm|YOffset=0mm|HoleType=Round|Shape=RoundedRectangle|*
%AMROUNDEDRECTD87*
21,1,2.3500,1.9400,0,0,90.0*
21,1,1.5400,2.7500,0,0,90.0*
1,1,0.8100,0.9700,0.7700*
1,1,0.8100,0.9700,-0.7700*
1,1,0.8100,-0.9700,-0.7700*
1,1,0.8100,-0.9700,0.7700*
%
%ADD87ROUNDEDRECTD87*%
%ADD88R,1.1500X0.8500*%
%ADD89O,0.4500X1.5500*%
%ADD90O,1.5500X0.4500*%
G04:AMPARAMS|DCode=91|XSize=0.75mm|YSize=1.15mm|CornerRadius=0.18mm|HoleSize=0mm|Usage=FLASHONLY|Rotation=0.000|XOffset=0mm|YOffset=0mm|HoleType=Round|Shape=RoundedRectangle|*
%AMROUNDEDRECTD91*
21,1,0.7500,0.7900,0,0,0.0*
21,1,0.3900,1.1500,0,0,0.0*
1,1,0.3600,0.1950,-0.3950*
1,1,0.3600,-0.1950,-0.3950*
1,1,0.3600,-0.1950,0.3950*
1,1,0.3600,0.1950,0.3950*
%
%ADD91ROUNDEDRECTD91*%
G04:AMPARAMS|DCode=92|XSize=2.35mm|YSize=2.75mm|CornerRadius=0.405mm|HoleSize=0mm|Usage=FLASHONLY|Rotation=0.000|XOffset=0mm|YOffset=0mm|HoleType=Round|Shape=RoundedRectangle|*
%AMROUNDEDRECTD92*
21,1,2.3500,1.9400,0,0,0.0*
21,1,1.5400,2.7500,0,0,0.0*
1,1,0.8100,0.7700,-0.9700*
1,1,0.8100,-0.7700,-0.9700*
1,1,0.8100,-0.7700,0.9700*
1,1,0.8100,0.7700,0.9700*
%
%ADD92ROUNDEDRECTD92*%
G04:AMPARAMS|DCode=93|XSize=0.75mm|YSize=1.15mm|CornerRadius=0.18mm|HoleSize=0mm|Usage=FLASHONLY|Rotation=90.000|XOffset=0mm|YOffset=0mm|HoleType=Round|Shape=RoundedRectangle|*
%AMROUNDEDRECTD93*
21,1,0.7500,0.7900,0,0,90.0*
21,1,0.3900,1.1500,0,0,90.0*
1,1,0.3600,0.3950,0.1950*
1,1,0.3600,0.3950,-0.1950*
1,1,0.3600,-0.3950,-0.1950*
1,1,0.3600,-0.3950,0.1950*
%
%ADD93ROUNDEDRECTD93*%
G04:AMPARAMS|DCode=94|XSize=1.35mm|YSize=1.85mm|CornerRadius=0.195mm|HoleSize=0mm|Usage=FLASHONLY|Rotation=180.000|XOffset=0mm|YOffset=0mm|HoleType=Round|Shape=RoundedRectangle|*
%AMROUNDEDRECTD94*
21,1,1.3500,1.4600,0,0,180.0*
21,1,0.9600,1.8500,0,0,180.0*
1,1,0.3900,-0.4800,0.7300*
1,1,0.3900,0.4800,0.7300*
1,1,0.3900,0.4800,-0.7300*
1,1,0.3900,-0.4800,-0.7300*
%
%ADD94ROUNDEDRECTD94*%
%ADD95R,2.6500X3.1500*%
%ADD96R,3.1500X0.6500*%
%ADD97O,1.1500X0.6000*%
%ADD98R,1.1500X0.6000*%
G04:AMPARAMS|DCode=99|XSize=2.45mm|YSize=2.95mm|CornerRadius=0.42mm|HoleSize=0mm|Usage=FLASHONLY|Rotation=180.000|XOffset=0mm|YOffset=0mm|HoleType=Round|Shape=RoundedRectangle|*
%AMROUNDEDRECTD99*
21,1,2.4500,2.1100,0,0,180.0*
21,1,1.6100,2.9500,0,0,180.0*
1,1,0.8400,-0.8050,1.0550*
1,1,0.8400,0.8050,1.0550*
1,1,0.8400,0.8050,-1.0550*
1,1,0.8400,-0.8050,-1.0550*
%
%ADD99ROUNDEDRECTD99*%
%ADD100R,2.1500X1.9500*%
G04:AMPARAMS|DCode=101|XSize=1.15mm|YSize=1.65mm|CornerRadius=0.2mm|HoleSize=0mm|Usage=FLASHONLY|Rotation=270.000|XOffset=0mm|YOffset=0mm|HoleType=Round|Shape=RoundedRectangle|*
%AMROUNDEDRECTD101*
21,1,1.1500,1.2500,0,0,270.0*
21,1,0.7500,1.6500,0,0,270.0*
1,1,0.4000,-0.6250,-0.3750*
1,1,0.4000,-0.6250,0.3750*
1,1,0.4000,0.6250,0.3750*
1,1,0.4000,0.6250,-0.3750*
%
%ADD101ROUNDEDRECTD101*%
%ADD102R,3.4500X2.5600*%
%ADD103O,0.7500X1.5500*%
%ADD104R,0.7500X1.5500*%
%ADD105O,1.2500X0.7500*%
%ADD106R,0.9500X2.1500*%
%ADD107R,1.7500X1.9500*%
%ADD108R,1.8500X3.5500*%
%ADD109R,1.8500X3.1500*%
%ADD110R,1.8500X2.6500*%
%ADD111R,1.8500X3.7500*%
%ADD112R,1.8500X2.3500*%
%ADD113O,1.8500X0.8500*%
%ADD114R,1.8500X0.8500*%
G04:AMPARAMS|DCode=115|XSize=1.15mm|YSize=1.65mm|CornerRadius=0.2mm|HoleSize=0mm|Usage=FLASHONLY|Rotation=0.000|XOffset=0mm|YOffset=0mm|HoleType=Round|Shape=RoundedRectangle|*
%AMROUNDEDRECTD115*
21,1,1.1500,1.2500,0,0,0.0*
21,1,0.7500,1.6500,0,0,0.0*
1,1,0.4000,0.3750,-0.6250*
1,1,0.4000,-0.3750,-0.6250*
1,1,0.4000,-0.3750,0.6250*
1,1,0.4000,0.3750,0.6250*
%
%ADD115ROUNDEDRECTD115*%
G04:AMPARAMS|DCode=116|XSize=2.45mm|YSize=2.95mm|CornerRadius=0.42mm|HoleSize=0mm|Usage=FLASHONLY|Rotation=90.000|XOffset=0mm|YOffset=0mm|HoleType=Round|Shape=RoundedRectangle|*
%AMROUNDEDRECTD116*
21,1,2.4500,2.1100,0,0,90.0*
21,1,1.6100,2.9500,0,0,90.0*
1,1,0.8400,1.0550,0.8050*
1,1,0.8400,1.0550,-0.8050*
1,1,0.8400,-1.0550,-0.8050*
1,1,0.8400,-1.0550,0.8050*
%
%ADD116ROUNDEDRECTD116*%
%ADD117C,7.1500*%
%ADD118C,1.9500*%
%ADD119O,3.1500X4.1500*%
%ADD120C,1.1500*%
%ADD121R,1.7500X1.7500*%
%ADD122C,1.7500*%
%ADD123C,1.6500*%
D63*
X47000Y348000D02*
D03*
Y392000D02*
D03*
D79*
X658750Y129250D02*
D03*
Y122750D02*
D03*
Y116250D02*
D03*
Y109750D02*
D03*
Y103250D02*
D03*
Y96750D02*
D03*
Y90250D02*
D03*
Y83750D02*
D03*
Y77250D02*
D03*
Y70750D02*
D03*
Y64250D02*
D03*
Y57750D02*
D03*
X717750Y129250D02*
D03*
Y122750D02*
D03*
Y116250D02*
D03*
Y109750D02*
D03*
Y103250D02*
D03*
Y96750D02*
D03*
Y90250D02*
D03*
Y83750D02*
D03*
Y77250D02*
D03*
Y70750D02*
D03*
Y64250D02*
D03*
Y57750D02*
D03*
X681000Y452500D02*
D03*
Y446000D02*
D03*
Y439500D02*
D03*
Y433000D02*
D03*
Y426500D02*
D03*
Y420000D02*
D03*
Y413500D02*
D03*
Y407000D02*
D03*
Y400500D02*
D03*
Y394000D02*
D03*
Y387500D02*
D03*
Y381000D02*
D03*
X740000Y452500D02*
D03*
Y446000D02*
D03*
Y439500D02*
D03*
Y433000D02*
D03*
Y426500D02*
D03*
Y420000D02*
D03*
Y413500D02*
D03*
Y407000D02*
D03*
Y400500D02*
D03*
Y394000D02*
D03*
Y387500D02*
D03*
Y381000D02*
D03*
D80*
X99250Y48000D02*
D03*
Y40500D02*
D03*
X92000Y209750D02*
D03*
Y202250D02*
D03*
X411000Y70250D02*
D03*
Y62750D02*
D03*
X398500Y70250D02*
D03*
Y62750D02*
D03*
X512250Y386250D02*
D03*
Y378750D02*
D03*
Y397750D02*
D03*
Y405250D02*
D03*
X499750Y397750D02*
D03*
Y405250D02*
D03*
X345500Y100750D02*
D03*
Y108250D02*
D03*
X134250Y73750D02*
D03*
Y81250D02*
D03*
X499750Y386250D02*
D03*
Y378750D02*
D03*
X345500Y120000D02*
D03*
Y127500D02*
D03*
X524750Y397750D02*
D03*
Y405250D02*
D03*
X345500Y81750D02*
D03*
Y89250D02*
D03*
X524750Y378750D02*
D03*
Y386250D02*
D03*
X345500Y62750D02*
D03*
Y70250D02*
D03*
X45000Y209750D02*
D03*
Y202250D02*
D03*
Y227250D02*
D03*
Y219750D02*
D03*
D81*
X590200Y124000D02*
D03*
X577500D02*
D03*
X564800D02*
D03*
X552100D02*
D03*
X539400D02*
D03*
X526700D02*
D03*
X514000D02*
D03*
X501300D02*
D03*
X590200Y65750D02*
D03*
X577500D02*
D03*
X564800D02*
D03*
X552100D02*
D03*
X539400D02*
D03*
X526700D02*
D03*
X514000D02*
D03*
X501300D02*
D03*
D82*
X115500Y97500D02*
D03*
Y127500D02*
D03*
D83*
X712300Y267000D02*
D03*
X699600D02*
D03*
X686900D02*
D03*
X674200D02*
D03*
X712300Y212500D02*
D03*
X699600D02*
D03*
X686900D02*
D03*
X674200D02*
D03*
D84*
X480500Y93500D02*
D03*
Y124000D02*
D03*
X181750Y112750D02*
D03*
Y82250D02*
D03*
X233750Y68000D02*
D03*
Y37500D02*
D03*
X213250Y68000D02*
D03*
Y37500D02*
D03*
X152250Y284000D02*
D03*
Y314500D02*
D03*
X653500Y211250D02*
D03*
Y241750D02*
D03*
D85*
X410500Y88250D02*
D03*
X401000Y112250D02*
D03*
X420000D02*
D03*
D86*
X398000Y127000D02*
D03*
X405500D02*
D03*
X424500D02*
D03*
X417000D02*
D03*
X506250Y417250D02*
D03*
X498750D02*
D03*
X114500Y214000D02*
D03*
X122000D02*
D03*
X517750Y417250D02*
D03*
X525250D02*
D03*
X37000Y133000D02*
D03*
X44500D02*
D03*
X182250Y315500D02*
D03*
X189750D02*
D03*
X620000Y196250D02*
D03*
X627500D02*
D03*
X638250D02*
D03*
X645750D02*
D03*
D87*
X449500Y119000D02*
D03*
Y71000D02*
D03*
X590750Y387250D02*
D03*
Y435250D02*
D03*
X124000Y309500D02*
D03*
Y261500D02*
D03*
X623000Y216250D02*
D03*
Y264250D02*
D03*
D88*
X499750Y441750D02*
D03*
X523750Y451250D02*
D03*
Y432250D02*
D03*
X539250Y437250D02*
D03*
Y418250D02*
D03*
X563250Y427750D02*
D03*
X360000Y124500D02*
D03*
Y105500D02*
D03*
X384000Y115000D02*
D03*
X539250Y400750D02*
D03*
Y381750D02*
D03*
X563250Y391250D02*
D03*
X360000Y84750D02*
D03*
Y65750D02*
D03*
X384000Y75250D02*
D03*
X80500Y205250D02*
D03*
Y224250D02*
D03*
X56500Y214750D02*
D03*
X33500Y201000D02*
D03*
Y220000D02*
D03*
X9500Y210500D02*
D03*
D89*
X170000Y262000D02*
D03*
X175000D02*
D03*
X180000D02*
D03*
X185000D02*
D03*
X190000D02*
D03*
X195000D02*
D03*
X200000D02*
D03*
X205000D02*
D03*
X210000D02*
D03*
X215000D02*
D03*
X220000D02*
D03*
X225000D02*
D03*
X230000D02*
D03*
X235000D02*
D03*
X240000D02*
D03*
X245000D02*
D03*
Y148000D02*
D03*
X240000D02*
D03*
X235000D02*
D03*
X230000D02*
D03*
X225000D02*
D03*
X220000D02*
D03*
X215000D02*
D03*
X210000D02*
D03*
X205000D02*
D03*
X200000D02*
D03*
X195000D02*
D03*
X190000D02*
D03*
X185000D02*
D03*
X180000D02*
D03*
X175000D02*
D03*
X170000D02*
D03*
D90*
X264500Y242500D02*
D03*
Y237500D02*
D03*
Y232500D02*
D03*
Y227500D02*
D03*
Y222500D02*
D03*
Y217500D02*
D03*
Y212500D02*
D03*
Y207500D02*
D03*
Y202500D02*
D03*
Y197500D02*
D03*
Y192500D02*
D03*
Y187500D02*
D03*
Y182500D02*
D03*
Y177500D02*
D03*
Y172500D02*
D03*
Y167500D02*
D03*
X150500D02*
D03*
Y172500D02*
D03*
Y177500D02*
D03*
Y182500D02*
D03*
Y187500D02*
D03*
Y192500D02*
D03*
Y197500D02*
D03*
Y202500D02*
D03*
Y207500D02*
D03*
Y212500D02*
D03*
Y217500D02*
D03*
Y222500D02*
D03*
Y227500D02*
D03*
Y232500D02*
D03*
Y237500D02*
D03*
Y242500D02*
D03*
D91*
X108750Y45500D02*
D03*
X124750D02*
D03*
D92*
X142250Y50250D02*
D03*
X190250D02*
D03*
X282000Y301750D02*
D03*
X330000D02*
D03*
X90000Y176000D02*
D03*
X42000D02*
D03*
D93*
X135000Y145000D02*
D03*
Y161000D02*
D03*
X121500Y145000D02*
D03*
Y161000D02*
D03*
X338000Y279250D02*
D03*
Y263250D02*
D03*
X113000Y244000D02*
D03*
Y228000D02*
D03*
X651750Y278750D02*
D03*
Y294750D02*
D03*
X589750Y219750D02*
D03*
Y235750D02*
D03*
D94*
X350500Y309250D02*
D03*
X381000D02*
D03*
X41000Y148000D02*
D03*
X10500D02*
D03*
X640000Y99250D02*
D03*
X609500D02*
D03*
X41000Y298000D02*
D03*
X10500D02*
D03*
D95*
X72000Y325000D02*
D03*
X17000D02*
D03*
Y415000D02*
D03*
X72000D02*
D03*
D96*
Y354000D02*
D03*
Y362000D02*
D03*
Y370000D02*
D03*
Y378000D02*
D03*
Y386000D02*
D03*
D97*
X98000Y78500D02*
D03*
D98*
Y69000D02*
D03*
Y59500D02*
D03*
X122000D02*
D03*
Y69000D02*
D03*
Y78500D02*
D03*
D99*
X78000Y101500D02*
D03*
X16000D02*
D03*
D100*
X155500Y86000D02*
D03*
Y128000D02*
D03*
D101*
X43500Y259250D02*
D03*
Y238250D02*
D03*
D102*
X79500Y269750D02*
D03*
D103*
X60450Y240250D02*
D03*
D104*
X73150D02*
D03*
X85850D02*
D03*
X98550D02*
D03*
X98550Y299250D02*
D03*
X85850D02*
D03*
X73150D02*
D03*
X60450D02*
D03*
D105*
X82250Y132000D02*
D03*
Y151000D02*
D03*
X56250Y132000D02*
D03*
Y141500D02*
D03*
Y151000D02*
D03*
D106*
X125250Y334000D02*
D03*
X136250D02*
D03*
X147250D02*
D03*
X158250D02*
D03*
X169250D02*
D03*
X180250D02*
D03*
X191250D02*
D03*
X202250D02*
D03*
X306250D02*
D03*
X317250D02*
D03*
X328250D02*
D03*
X339250D02*
D03*
X350250D02*
D03*
X361250D02*
D03*
X372250D02*
D03*
X383250D02*
D03*
D107*
X223150Y338000D02*
D03*
X404150D02*
D03*
D108*
X258250Y351000D02*
D03*
X439250D02*
D03*
D109*
X102250Y361000D02*
D03*
X283250D02*
D03*
D110*
X102250Y437000D02*
D03*
X283250D02*
D03*
D111*
X258250Y446500D02*
D03*
X439250D02*
D03*
D112*
X102250Y484500D02*
D03*
X251750Y494500D02*
D03*
X283250Y484500D02*
D03*
X432750Y494500D02*
D03*
D113*
X183750Y11900D02*
D03*
D114*
Y24600D02*
D03*
X117750D02*
D03*
Y11900D02*
D03*
D115*
X825500Y321250D02*
D03*
X846500D02*
D03*
X848750Y191000D02*
D03*
X827750D02*
D03*
D116*
X747000Y216750D02*
D03*
Y278750D02*
D03*
X844250Y102500D02*
D03*
Y164500D02*
D03*
D117*
X40000Y40000D02*
D03*
Y470000D02*
D03*
X855250D02*
D03*
Y40000D02*
D03*
D118*
X806000Y257250D02*
D03*
X866000Y257500D02*
D03*
D119*
X873500Y225250D02*
D03*
X838250D02*
D03*
X803500D02*
D03*
Y287750D02*
D03*
X873500D02*
D03*
D120*
X291750Y261000D02*
D03*
X317150D02*
D03*
X304450D02*
D03*
X193750Y284200D02*
D03*
Y296900D02*
D03*
X14500Y169950D02*
D03*
Y182650D02*
D03*
X92750Y25550D02*
D03*
Y12850D02*
D03*
X532900Y289850D02*
D03*
Y277150D02*
D03*
X520200Y289850D02*
D03*
Y277150D02*
D03*
X507500Y289850D02*
D03*
Y277150D02*
D03*
X494800Y289850D02*
D03*
Y277150D02*
D03*
X249150Y105600D02*
D03*
Y92900D02*
D03*
X236450Y105600D02*
D03*
Y92900D02*
D03*
X223750Y105600D02*
D03*
Y92900D02*
D03*
X211050Y105600D02*
D03*
Y92900D02*
D03*
X276250Y109750D02*
D03*
Y84350D02*
D03*
Y97050D02*
D03*
X217950Y15750D02*
D03*
X230650D02*
D03*
X205250D02*
D03*
D121*
X17000Y270200D02*
D03*
D122*
Y244800D02*
D03*
D123*
X800800Y169300D02*
D03*
X775400D02*
D03*
X750000D02*
D03*
X724600D02*
D03*
X699200D02*
D03*
X673800D02*
D03*
X648400D02*
D03*
X623000D02*
D03*
X597600D02*
D03*
X572200D02*
D03*
X546800D02*
D03*
X521400D02*
D03*
X496000D02*
D03*
X470600D02*
D03*
X445200D02*
D03*
X419800D02*
D03*
X394400D02*
D03*
X369000D02*
D03*
X343600D02*
D03*
X318200D02*
D03*
Y16900D02*
D03*
X343600D02*
D03*
X369000D02*
D03*
X394400D02*
D03*
X419800D02*
D03*
X445200D02*
D03*
X470600D02*
D03*
X496000D02*
D03*
X521400D02*
D03*
X546800D02*
D03*
X572200D02*
D03*
X597600D02*
D03*
X623000D02*
D03*
X648400D02*
D03*
X673800D02*
D03*
X699200D02*
D03*
X724600D02*
D03*
X750000D02*
D03*
X775400D02*
D03*
X800800D02*
D03*
X799900Y492800D02*
D03*
X774500D02*
D03*
X749100D02*
D03*
X723700D02*
D03*
X698300D02*
D03*
X672900D02*
D03*
X647500D02*
D03*
X622100D02*
D03*
X596700D02*
D03*
X571300D02*
D03*
X545900D02*
D03*
X520500D02*
D03*
X495100D02*
D03*
X469700D02*
D03*
Y340400D02*
D03*
X495100D02*
D03*
X520500D02*
D03*
X545900D02*
D03*
X571300D02*
D03*
X596700D02*
D03*
X622100D02*
D03*
X647500D02*
D03*
X672900D02*
D03*
X698300D02*
D03*
X723700D02*
D03*
X749100D02*
D03*
X774500D02*
D03*
X799900D02*
D03*
M02*
